HIERARCHY
ROOT Hips
{
	OFFSET 0.000000 0.000000 0.000000
	CHANNELS 6 Xposition Yposition Zposition Zrotation Yrotation Xrotation 
	JOINT LHipJoint
	{
		OFFSET 0.000000 0.000000 0.000000
		CHANNELS 3 Zrotation Yrotation Xrotation
		JOINT LeftUpLeg
		{
			OFFSET 1.363060 -1.794630 0.839290
			CHANNELS 3 Zrotation Yrotation Xrotation
			JOINT LeftLeg
			{
				OFFSET 2.448110 -6.726130 0.000000
				CHANNELS 3 Zrotation Yrotation Xrotation
				JOINT LeftFoot
				{
					OFFSET 2.562200 -7.039590 0.000000
					CHANNELS 3 Zrotation Yrotation Xrotation
					JOINT LeftToeBase
					{
						OFFSET 0.157640 -0.433110 2.322550
						CHANNELS 3 Zrotation Yrotation Xrotation
						End Site
						{
							OFFSET 0.000000 0.000000 0.000000
						}
					}
				}
			}
		}
	}
	JOINT RHipJoint
	{
		OFFSET 0.000000 0.000000 0.000000
		CHANNELS 3 Zrotation Yrotation Xrotation
		JOINT RightUpLeg
		{
			OFFSET -1.305520 -1.794630 0.839290
			CHANNELS 3 Zrotation Yrotation Xrotation
			JOINT RightLeg
			{
				OFFSET -2.542530 -6.985550 0.000000
				CHANNELS 3 Zrotation Yrotation Xrotation
				JOINT RightFoot
				{
					OFFSET -2.568260 -7.056230 0.000000
					CHANNELS 3 Zrotation Yrotation Xrotation
					JOINT RightToeBase
					{
						OFFSET -0.164730 -0.452590 2.363150
						CHANNELS 3 Zrotation Yrotation Xrotation
						End Site
						{
							OFFSET 0.000000 0.000000 0.000000
						}
					}
				}
			}
		}
	}
	JOINT LowerBack
	{
		OFFSET 0.000000 0.000000 0.000000
		CHANNELS 3 Zrotation Yrotation Xrotation
		JOINT Spine
		{
			OFFSET 0.028270 2.035590 -0.193380
			CHANNELS 3 Zrotation Yrotation Xrotation
			JOINT Spine1
			{
				OFFSET 0.056720 2.048850 -0.042750
				CHANNELS 3 Zrotation Yrotation Xrotation
				JOINT Neck
				{
					OFFSET 0.000000 0.000000 0.000000
					CHANNELS 3 Zrotation Yrotation Xrotation
					JOINT Neck1
					{
						OFFSET -0.054170 1.746240 0.172020
						CHANNELS 3 Zrotation Yrotation Xrotation
						JOINT Head
						{
							OFFSET 0.104070 1.761360 -0.123970
							CHANNELS 3 Zrotation Yrotation Xrotation
							End Site
							{
								OFFSET 0.000000 0.000000 0.000000
							}
						}
					}
				}
				JOINT LeftShoulder
				{
					OFFSET 0.000000 0.000000 0.000000
					CHANNELS 3 Zrotation Yrotation Xrotation
					JOINT LeftArm
					{
						OFFSET 3.362410 1.200890 -0.311210
						CHANNELS 3 Zrotation Yrotation Xrotation
						JOINT LeftForeArm
						{
							OFFSET 4.983000 -0.000000 -0.000000
							CHANNELS 3 Zrotation Yrotation Xrotation
							JOINT LeftHand
							{
								OFFSET 3.483560 -0.000000 -0.000000
								CHANNELS 3 Zrotation Yrotation Xrotation
								JOINT LeftFingerBase
								{
									OFFSET 0.000000 0.000000 0.000000
									CHANNELS 3 Zrotation Yrotation Xrotation
									JOINT LeftHandIndex1
									{
										OFFSET 0.715260 -0.000000 -0.000000
										CHANNELS 3 Zrotation Yrotation Xrotation
										End Site
										{
											OFFSET 0.000000 0.000000 0.000000
										}
									}
								}
								JOINT LThumb
								{
									OFFSET 0.000000 0.000000 0.000000
									CHANNELS 3 Zrotation Yrotation Xrotation
									End Site
									{
										OFFSET 0.000000 0.000000 0.000000
									}
								}
							}
						}
					}
				}
				JOINT RightShoulder
				{
					OFFSET 0.000000 0.000000 0.000000
					CHANNELS 3 Zrotation Yrotation Xrotation
					JOINT RightArm
					{
						OFFSET -3.136600 1.374050 -0.404650
						CHANNELS 3 Zrotation Yrotation Xrotation
						JOINT RightForeArm
						{
							OFFSET -5.241900 -0.000000 -0.000000
							CHANNELS 3 Zrotation Yrotation Xrotation
							JOINT RightHand
							{
								OFFSET -3.444170 -0.000000 -0.000000
								CHANNELS 3 Zrotation Yrotation Xrotation
								JOINT RightFingerBase
								{
									OFFSET 0.000000 0.000000 0.000000
									CHANNELS 3 Zrotation Yrotation Xrotation
									JOINT RightHandIndex1
									{
										OFFSET -0.622530 -0.000000 -0.000000
										CHANNELS 3 Zrotation Yrotation Xrotation
										End Site
										{
											OFFSET 0.000000 0.000000 0.000000
										}
									}
								}
								JOINT RThumb
								{
									OFFSET 0.000000 0.000000 0.000000
									CHANNELS 3 Zrotation Yrotation Xrotation
									End Site
									{
										OFFSET 0.000000 0.000000 0.000000
									}
								}
							}
						}
					}
				}
			}
		}
	}
}
MOTION
Frames: 12
Frame Time: 0.008333
5.686020 17.837303 -13.872659 2.097836 0.614513 1.709515 -1.489937 5.903755 5.555444 -21.887106 -7.952842 -5.509959 -0.348177 4.903148 21.164967 0.659397 -1.822989 -1.429179 0.015933 0.814277 2.237855 0.777338 -3.932919 2.661366 14.982892 11.396685 -34.915793 -4.057848 -12.137358 38.272878 2.595256 -10.747587 6.301288 -0.069868 -1.703768 4.687677 -3.261108 -1.322463 6.693521 3.376884 -1.855607 4.229487 3.545809 -0.966488 -9.121004 -5.751493 -3.863130 -17.225866 3.598412 -4.028629 15.044436 0.086230 -1.724205 8.265433 -7.132704 2.564436 -1.140369 -76.541265 -3.663286 31.952313 15.478740 -25.548041 -3.646449 -0.314785 -0.793633 -7.390674 29.384061 24.292459 13.619967 -7.125000 0.000000 0.000000 0.239165 58.272044 0.064674 11.169253 -2.142818 -2.635420 74.363041 -2.102435 10.396232 -10.166429 21.813794 -2.312070 1.039680 -0.423250 3.863314 -17.053604 22.939903 -7.333567 7.125000 0.000000 0.000000 6.815503 -5.882429 6.126922
5.683262 17.836217 -13.772251 2.233289 0.613695 1.813387 -1.521420 5.925487 5.615537 -21.980828 -7.802625 -5.123942 -0.410002 4.756227 20.788675 0.667673 -1.859210 -1.483658 0.016730 0.833720 2.291356 0.851061 -3.906223 2.600976 14.633017 11.603252 -34.912262 -3.623837 -11.685159 36.529214 2.684357 -11.043276 6.569941 -0.057569 -1.526852 4.200045 -3.360669 -1.355102 6.489410 3.353605 -1.901003 4.319837 3.579005 -0.995590 -8.933801 -5.800162 -3.838894 -17.137710 3.633963 -4.000153 14.864879 0.106805 -1.715710 8.201035 -7.128861 2.543653 -1.145072 -76.366217 -3.936046 32.145844 15.649380 -25.787861 -3.727601 -0.324715 -0.786169 -7.569458 29.954529 23.793406 13.681437 -7.125000 0.000000 0.000000 1.065864 57.857695 0.335649 11.176937 -2.147375 -2.628147 74.392922 -1.843565 10.280282 -10.082523 21.659130 -2.284449 1.053704 -0.338713 4.000153 -17.927957 21.129126 -7.084817 7.125000 0.000000 0.000000 6.122644 -7.716979 5.302829
5.680613 17.835910 -13.671373 2.358691 0.622799 1.911184 -1.552741 5.949341 5.676568 -22.061001 -7.669667 -4.716212 -0.473056 4.606454 20.403661 0.670966 -1.880148 -1.521718 0.018515 0.877560 2.411991 0.928736 -3.881575 2.540431 14.286328 11.811907 -34.875575 -3.192828 -11.218476 34.767412 2.784018 -11.367702 6.810330 -0.035678 -1.218718 3.350695 -3.453995 -1.399321 6.309605 3.349120 -1.961021 4.392017 3.620839 -1.030968 -8.772547 -5.855376 -3.795770 -17.029655 3.649755 -3.943607 14.688387 0.126128 -1.696546 8.134262 -7.124405 2.523044 -1.149878 -76.213498 -4.116337 32.332818 15.870819 -26.098386 -3.830838 -0.332972 -0.785397 -7.761443 30.551182 23.645577 13.925019 -7.125000 0.000000 0.000000 1.799565 57.834834 0.565724 11.181309 -2.152928 -2.623725 74.421134 -1.620568 10.350716 -10.079729 21.631939 -2.294540 1.066924 -0.226076 4.203420 -18.991850 18.777938 -6.718144 7.125000 0.000000 0.000000 5.269872 -10.115687 4.281023
5.674197 17.833307 -13.573261 2.419124 0.745136 1.997373 -1.583713 5.976723 5.736683 -22.034431 -7.502639 -4.333148 -0.538248 4.456890 20.007312 0.700299 -1.996044 -1.527971 0.019061 0.890604 2.447907 1.019323 -3.861289 2.479488 13.978778 11.999606 -34.728114 -2.774861 -10.713509 32.973701 2.876535 -11.667558 7.079254 -0.031249 -1.139605 3.133013 -3.506274 -1.452395 6.414471 3.362507 -2.034978 4.351980 3.666392 -1.069263 -8.856840 -5.789782 -3.820160 -17.213138 3.568510 -3.961032 14.802068 0.090879 -1.705464 8.194507 -7.118855 2.523629 -1.144780 -76.082336 -4.338437 32.499225 16.017914 -26.292891 -3.904417 -0.324723 -0.762374 -7.863530 30.141822 22.546839 13.135467 -7.125000 0.000000 0.000000 1.595291 56.505687 0.454213 11.171065 -2.154720 -2.625700 74.453711 -1.664082 10.552444 -10.164510 21.770468 -2.325780 1.066166 -0.244461 4.133778 -18.907380 19.240873 -6.850221 7.125000 0.000000 0.000000 5.355840 -9.625842 4.405092
5.666794 17.830843 -13.475608 2.481081 0.865319 2.079324 -1.614146 6.003224 5.793697 -22.006971 -7.366843 -3.951941 -0.598907 4.316377 19.635832 0.726300 -2.100215 -1.532796 0.020159 0.915568 2.516593 1.110714 -3.844027 2.418883 13.645439 12.237700 -34.547728 -2.366039 -10.197859 31.185816 2.974290 -11.959495 7.227085 -0.038441 -1.237044 3.401724 -3.572657 -1.498408 6.557393 3.371673 -2.103139 4.275768 3.716940 -1.102874 -8.985604 -5.724393 -3.841247 -17.309402 3.499114 -3.985966 14.883882 0.058713 -1.717766 8.230910 -7.113885 2.522201 -1.138740 -75.929005 -4.559369 32.707112 16.129860 -26.442373 -3.959821 -0.316148 -0.748703 -7.979963 29.793381 21.919631 12.626069 -7.125000 0.000000 0.000000 1.348904 55.720650 0.354554 11.163686 -2.159709 -2.630174 74.483232 -1.769355 10.678664 -10.212925 21.855855 -2.337798 1.064842 -0.290840 3.968658 -18.597075 20.294921 -7.087282 7.125000 0.000000 0.000000 5.630765 -8.529340 4.767502
5.657776 17.828603 -13.378707 2.545532 0.981975 2.154338 -1.643698 6.028285 5.845638 -21.978051 -7.282153 -3.573769 -0.652152 4.190675 19.305048 0.746848 -2.185201 -1.535285 0.022162 0.960039 2.638903 1.203423 -3.831714 2.358829 13.269899 12.558257 -34.313465 -1.972181 -9.664724 29.407464 3.080614 -12.238475 7.176764 -0.064651 -1.623387 4.466352 -3.662120 -1.532868 6.762588 3.373932 -2.161816 4.140359 3.775662 -1.128819 -9.187137 -5.659340 -3.856927 -17.262944 3.449107 -4.023190 14.913550 0.031594 -1.735603 8.228302 -7.109861 2.517480 -1.131161 -75.739397 -4.778388 32.982877 16.184286 -26.518180 -3.985484 -0.307041 -0.750337 -8.119871 29.544625 22.064016 12.575107 -7.125000 0.000000 0.000000 1.033605 55.825972 0.274289 11.160993 -2.169929 -2.638738 74.507752 -1.975688 10.681328 -10.201830 21.854282 -2.318361 1.062595 -0.383024 3.647303 -17.917220 22.316246 -7.496133 7.125000 0.000000 0.000000 6.214890 -6.440126 5.519924
5.650218 17.823090 -13.279284 2.633145 1.041795 2.204484 -1.668849 6.055983 5.900873 -22.002443 -7.184320 -3.152959 -0.698196 4.071016 19.000183 0.735296 -2.143330 -1.591693 0.022035 0.958074 2.633525 1.297957 -3.826784 2.300466 12.845908 12.948276 -34.035203 -1.597808 -9.112767 27.628007 3.201706 -12.540036 7.034584 -0.076091 -1.778703 4.894492 -3.802551 -1.579537 6.881002 3.435856 -2.240018 4.044785 3.888134 -1.161562 -9.308639 -5.738730 -3.826283 -17.066082 3.432167 -3.981976 14.831761 0.045411 -1.725853 8.172338 -7.111152 2.505046 -1.127018 -75.661344 -4.922887 33.058622 16.237843 -26.600418 -4.007436 -0.313225 -0.769248 -8.171052 30.077676 22.955868 13.320121 -7.125000 0.000000 0.000000 1.423937 56.950668 0.432767 11.163021 -2.179744 -2.648018 74.444359 -2.112052 10.771890 -10.185356 21.837182 -2.296256 1.070402 -0.439274 3.500937 -17.806647 23.583872 -7.872963 7.125000 0.000000 0.000000 6.384108 -5.094997 5.828566
5.643067 17.815585 -13.178662 2.724247 1.082950 2.244280 -1.692263 6.085504 5.958159 -22.039455 -7.074807 -2.717660 -0.741815 3.953148 18.703126 0.714424 -2.064211 -1.664993 0.021090 0.938004 2.578350 1.392784 -3.825040 2.242969 12.407594 13.365759 -33.738592 -1.233619 -8.553354 25.853708 3.327653 -12.845226 6.845486 -0.080802 -1.833690 5.046166 -3.949221 -1.628254 6.966348 3.510865 -2.320705 3.970801 4.008204 -1.195421 -9.396594 -5.855123 -3.784600 -16.839542 3.424396 -3.920845 14.720450 0.069791 -1.709076 8.104054 -7.113388 2.490592 -1.124136 -75.613204 -5.049303 33.073058 16.294213 -26.688677 -4.030335 -0.324859 -0.791104 -8.184497 30.859195 23.953504 14.248547 -7.125000 0.000000 0.000000 2.070826 58.251353 0.669781 11.165396 -2.188921 -2.657462 74.367908 -2.222818 10.892137 -10.182244 21.837516 -2.279479 1.080676 -0.483050 3.452981 -17.899202 24.586702 -8.238433 7.125000 0.000000 0.000000 6.407268 -4.012017 5.981572
5.634472 17.799363 -13.075042 2.759552 1.149002 2.270777 -1.714360 6.124492 6.024724 -21.998947 -6.889445 -2.295656 -0.787910 3.830474 18.386896 0.721148 -2.089555 -1.705634 0.019755 0.906638 2.491957 1.483423 -3.828512 2.188163 12.008102 13.804374 -33.418029 -0.902850 -7.988065 24.141091 3.447196 -13.098567 6.510976 -0.071155 -1.718782 4.729168 -3.957188 -1.649882 7.039091 3.487604 -2.349316 3.973670 3.993305 -1.213945 -9.439088 -5.792623 -3.809467 -16.897385 3.383412 -3.958838 14.736432 0.044310 -1.726913 8.116795 -7.104434 2.485196 -1.121225 -75.441690 -5.279174 33.223638 16.385315 -26.817452 -4.078861 -0.334524 -0.775146 -8.141525 31.206494 23.075553 13.963946 -7.125000 0.000000 0.000000 2.683770 57.345740 0.803679 11.152373 -2.192690 -2.665809 74.505236 -2.335200 10.982949 -10.349164 22.094414 -2.332619 1.077275 -0.535104 3.782143 -17.921652 25.728184 -8.608577 7.125000 0.000000 0.000000 6.503551 -2.800266 6.219275
5.625772 17.789112 -12.971607 2.776535 1.249910 2.320198 -1.736034 6.165614 6.090961 -21.924375 -6.723132 -1.890590 -0.839650 3.699537 18.040958 0.736707 -2.150175 -1.722549 0.020845 0.928809 2.552915 1.572537 -3.833784 2.132604 11.602794 14.270040 -33.102910 -0.593001 -7.429785 22.471508 3.566578 -13.358089 6.218178 -0.067862 -1.680054 4.622363 -3.950340 -1.692265 7.118932 3.468832 -2.402943 3.982172 3.983376 -1.245361 -9.483282 -5.701605 -3.833068 -17.149443 3.345933 -3.979452 14.893008 0.017564 -1.730067 8.201682 -7.098375 2.489282 -1.118237 -75.261284 -5.560501 33.358024 16.456985 -26.916657 -4.117016 -0.335452 -0.761426 -8.089292 31.176934 22.415408 13.596892 -7.125000 0.000000 0.000000 2.806051 56.595650 0.801691 11.138627 -2.189739 -2.666626 74.637200 -2.407584 10.989070 -10.456009 22.258035 -2.360734 1.070756 -0.592643 4.052534 -17.780427 26.960861 -8.917725 7.125000 0.000000 0.000000 6.713971 -1.519742 6.583110
5.616935 17.786631 -12.868411 2.769669 1.396188 2.399459 -1.757159 6.209514 6.156771 -21.805467 -6.581611 -1.507569 -0.898738 3.557844 17.656354 0.763764 -2.256710 -1.708583 0.025092 1.020662 2.805664 1.659667 -3.841397 2.076065 11.189915 14.770916 -32.794878 -0.310381 -6.880630 20.857940 3.685749 -13.625656 5.979674 -0.072836 -1.740481 4.789144 -3.924206 -1.761661 7.208009 3.455905 -2.489130 3.998006 3.979917 -1.293555 -9.529689 -5.573469 -3.855023 -17.654288 3.313016 -3.977448 15.232581 -0.010830 -1.714111 8.380475 -7.096086 2.505711 -1.115150 -75.069305 -5.908803 33.471332 16.503361 -26.977373 -4.141673 -0.325008 -0.750618 -8.025008 30.656858 22.038759 13.122518 -7.125000 0.000000 0.000000 2.289694 56.047987 0.622838 11.123939 -2.178040 -2.657639 74.762181 -2.427907 10.884958 -10.484663 22.300247 -2.356274 1.060177 -0.657320 4.246429 -17.426164 28.312235 -9.147480 7.125000 0.000000 0.000000 7.072952 -0.149705 7.111116
5.609193 17.783388 -12.763454 2.845032 1.524216 2.466496 -1.772521 6.250842 6.219676 -21.793489 -6.404978 -1.099378 -0.954306 3.410235 17.271996 0.781393 -2.341277 -1.687995 0.026382 1.048123 2.881212 1.732927 -3.852820 2.023448 10.683246 15.259789 -32.497600 -0.065784 -6.366144 19.364236 3.757718 -13.778937 5.872797 -0.066411 -1.659815 4.566559 -3.968603 -1.824965 7.235724 3.436992 -2.575206 4.008054 4.007465 -1.338935 -9.539977 -5.542789 -3.844223 -17.890529 3.352687 -3.948054 15.383494 0.000558 -1.689474 8.462535 -7.100830 2.510709 -1.114587 -74.894170 -6.260483 33.685923 16.476095 -26.947812 -4.125252 -0.320763 -0.768757 -8.139597 30.708424 23.001284 13.660454 -7.125000 0.000000 0.000000 2.117530 57.141637 0.627910 11.131190 -2.173094 -2.649509 74.786532 -2.439239 10.736357 -10.456016 22.298254 -2.444984 0.964740 -0.474249 4.301921 -15.413567 23.817840 -7.017244 7.125000 0.000000 0.000000 8.085215 -5.134762 7.267501
